# Blender 4.5.3 LTS
# www.blender.org
mtllib Jawbusterbox.mtl
o Cube
v 1.013486 5.832600 -5.343568
v 1.013486 -0.110701 -5.343568
v 1.013486 5.832600 5.491928
v 1.013486 -0.110701 5.491928
v -0.986514 5.832600 -5.343568
v -0.986514 -0.110701 -5.343568
v -0.986514 5.832600 5.491928
v -0.986514 -0.110701 5.491928
vn -0.0000 1.0000 -0.0000
vn -0.0000 -0.0000 1.0000
vn -1.0000 -0.0000 -0.0000
vn -0.0000 -1.0000 -0.0000
vn 1.0000 -0.0000 -0.0000
vn -0.0000 -0.0000 -1.0000
vt 0.881458 0.758125
vt 0.818333 0.792083
vt 0.106875 0.741458
vt 0.142500 0.706875
vt 0.155830 0.215748
vt 0.143378 0.706941
vt 0.107315 0.736070
vt 0.119142 0.255878
vt 0.891630 0.277964
vt 0.886372 0.753584
vt 0.146168 0.710528
vt 0.176625 0.211285
vt 0.882950 0.758955
vt 0.818462 0.791674
vt 0.111097 0.741076
vt 0.143837 0.706372
vt 0.891436 0.270557
vt 0.889073 0.751911
vt 0.142483 0.704044
vt 0.156070 0.216646
vt 0.155048 0.211092
vt 0.146019 0.702948
vt 0.108613 0.732803
vt 0.126856 0.258917
s 0
usemtl Material
f 1/1/1 5/2/1 7/3/1 3/4/1
f 4/5/2 3/6/2 7/7/2 8/8/2
f 8/9/3 7/10/3 5/11/3 6/12/3
f 6/13/4 2/14/4 4/15/4 8/16/4
f 2/17/5 1/18/5 3/19/5 4/20/5
f 6/21/6 5/22/6 1/23/6 2/24/6
